<svg width="18" height="22" viewBox="0 0 18 22" fill="none" xmlns="http://www.w3.org/2000/svg">
<path fill-rule="evenodd" clip-rule="evenodd" d="M16 2H2V20H16V2ZM0 0V22H18V0H0Z" fill="#252D35"/>
<path d="M4 4H14V6H4V4Z" fill="#252D35"/>
<path d="M4 8H6V10H4V8Z" fill="#252D35"/>
<path d="M4 12H6V14H4V12Z" fill="#252D35"/>
<path d="M4 16H6V18H4V16Z" fill="#252D35"/>
<path d="M8 8H10V10H8V8Z" fill="#252D35"/>
<path d="M8 12H10V14H8V12Z" fill="#252D35"/>
<path d="M8 16H10V18H8V16Z" fill="#252D35"/>
<path d="M12 8H14V10H12V8Z" fill="#252D35"/>
<path d="M12 12H14V18H12V12Z" fill="#252D35"/>
</svg>
