<svg width="20" height="20" viewBox="0 0 20 20" fill="none" xmlns="http://www.w3.org/2000/svg">
<path opacity="0.35" d="M15.0131 20C12.3956 20 8.25778 18.8127 4.82789 15.3621C0.134347 10.6402 -1.14349 4.74461 1.02276 2.47446L2.7377 0.749149C3.73057 -0.249716 5.35525 -0.249716 6.43838 0.749149L8.96567 3.29171C9.59749 3.92736 9.86827 4.92622 9.68775 5.83428C9.50723 6.74234 8.87541 7.37798 7.9728 7.6504C7.79228 7.6504 7.61176 7.83201 7.5215 8.01362C7.5215 8.10443 7.43124 8.28604 7.43124 8.46765C7.79228 10.0114 9.95853 12.1907 11.493 12.5539C11.854 12.6447 12.3053 12.3723 12.3956 12.0999C12.6663 11.2826 13.2982 10.647 14.2008 10.3746C15.1034 10.193 16.006 10.3746 16.7281 11.101L19.2554 13.6436C20.2482 14.6425 20.2482 16.277 19.2554 17.3666L17.5404 19.0919C16.9086 19.7276 16.006 20 15.0131 20ZM4.54291 1.83882C4.36239 1.83882 4.18187 1.92963 4.00135 2.02043L2.2864 3.74574C1.11302 5.01703 2.02982 9.91373 6.09153 14C10.2435 18.0863 15.0131 18.9103 16.2768 17.7299L17.9917 16.0045C18.2625 15.7321 18.2625 15.0965 17.9917 14.8241L15.4644 12.3723C15.2839 12.1907 15.0131 12.0999 14.6521 12.1907C14.5618 12.1907 14.2008 12.3723 14.1105 12.6447C13.6592 13.916 12.3956 14.6425 11.0417 14.37C8.87541 13.8252 6.1676 11.1918 5.62604 9.01249C5.53578 8.37684 5.62604 7.7412 5.98708 7.10556C6.34812 6.56073 6.79942 6.1067 7.43124 5.92509C7.79228 5.74347 7.88254 5.47106 7.88254 5.38025C7.97281 5.10783 7.88254 4.83541 7.70202 4.563L5.17473 2.02043C4.99421 1.92963 4.81369 1.83882 4.54291 1.83882Z" fill="#252D35"/>
</svg>
